<mxfile host="app.diagrams.net" modified="2023-05-29T14:40:01.897Z" agent="Mozilla/5.0 (Windows NT 10.0; Win64; x64) AppleWebKit/537.36 (KHTML, like Gecko) Chrome/112.0.0.0 YaBrowser/23.5.0.2271 Yowser/2.5 Safari/537.36" etag="lYq8X9fWbg3LtRa7DFQN" version="21.2.1" type="device">
  <diagram name="Страница 1" id="QS_-ZPgXph8Gx2sKP_ih">
    <mxGraphModel dx="1386" dy="767" grid="1" gridSize="10" guides="1" tooltips="1" connect="1" arrows="1" fold="1" page="1" pageScale="1" pageWidth="827" pageHeight="1169" math="0" shadow="0">
      <root>
        <mxCell id="0" />
        <mxCell id="1" parent="0" />
        <mxCell id="s8tIIRf2-S3uDCjSLBHM-1" value="CSV" style="rounded=0;whiteSpace=wrap;html=1;" vertex="1" parent="1">
          <mxGeometry x="60" y="130" width="120" height="60" as="geometry" />
        </mxCell>
        <mxCell id="s8tIIRf2-S3uDCjSLBHM-2" value="JSON" style="rounded=0;whiteSpace=wrap;html=1;" vertex="1" parent="1">
          <mxGeometry x="60" y="210" width="120" height="60" as="geometry" />
        </mxCell>
        <mxCell id="s8tIIRf2-S3uDCjSLBHM-3" value="Data Lake" style="rounded=0;whiteSpace=wrap;html=1;" vertex="1" parent="1">
          <mxGeometry x="280" y="190" width="120" height="60" as="geometry" />
        </mxCell>
        <mxCell id="s8tIIRf2-S3uDCjSLBHM-4" value="EXcel" style="rounded=0;whiteSpace=wrap;html=1;" vertex="1" parent="1">
          <mxGeometry x="490" y="150" width="120" height="60" as="geometry" />
        </mxCell>
        <mxCell id="s8tIIRf2-S3uDCjSLBHM-5" value="PowerBI" style="rounded=0;whiteSpace=wrap;html=1;" vertex="1" parent="1">
          <mxGeometry x="490" y="230" width="120" height="60" as="geometry" />
        </mxCell>
        <mxCell id="s8tIIRf2-S3uDCjSLBHM-6" value="" style="shape=flexArrow;endArrow=classic;html=1;rounded=0;width=12;endSize=5.67;" edge="1" parent="1">
          <mxGeometry width="50" height="50" relative="1" as="geometry">
            <mxPoint x="200" y="219.5" as="sourcePoint" />
            <mxPoint x="280" y="219.5" as="targetPoint" />
            <Array as="points">
              <mxPoint x="230" y="219.5" />
            </Array>
          </mxGeometry>
        </mxCell>
        <mxCell id="s8tIIRf2-S3uDCjSLBHM-7" value="" style="shape=flexArrow;endArrow=classic;html=1;rounded=0;width=12;endSize=5.67;" edge="1" parent="1">
          <mxGeometry width="50" height="50" relative="1" as="geometry">
            <mxPoint x="400" y="219.5" as="sourcePoint" />
            <mxPoint x="480" y="219.5" as="targetPoint" />
            <Array as="points">
              <mxPoint x="430" y="219.5" />
            </Array>
          </mxGeometry>
        </mxCell>
        <mxCell id="s8tIIRf2-S3uDCjSLBHM-8" value="Xml" style="rounded=0;whiteSpace=wrap;html=1;" vertex="1" parent="1">
          <mxGeometry x="60" y="290" width="120" height="60" as="geometry" />
        </mxCell>
      </root>
    </mxGraphModel>
  </diagram>
</mxfile>
